<?xml version="1.0" standalone="no"?>
<!DOCTYPE svg PUBLIC "-//W3C//DTD SVG 20010904//EN"
 "http://www.w3.org/TR/2001/REC-SVG-20010904/DTD/svg10.dtd">
<svg version="1.0" xmlns="http://www.w3.org/2000/svg"
 width="700.000000pt" height="700.000000pt" viewBox="0 0 700.000000 700.000000"
 preserveAspectRatio="xMidYMid meet">
<metadata>
Created by potrace 1.14, written by Peter Selinger 2001-2017
</metadata>
<g transform="translate(0.000000,700.000000) scale(0.100000,-0.100000)"
fill="#000000" stroke="none">
<path d="M3536 5855 c-50 -54 -2417 -4006 -2424 -4045 -7 -45 30 -77 121 -105
45 -14 596 -153 1225 -310 l1142 -286 53 15 c50 13 1107 303 1332 365 61 16
270 73 465 126 422 115 430 118 430 177 0 34 -19 73 -204 411 -290 530 -597
1090 -756 1377 -89 162 -254 462 -365 665 -642 1172 -834 1520 -877 1582 -50
74 -93 82 -142 28z m-38 -2111 l-3 -1249 -377 0 c-207 0 -380 4 -384 8 -8 8
18 103 215 772 62 209 196 664 297 1010 102 347 197 668 211 715 l27 85 8 -46
c4 -26 7 -609 6 -1295z m415 1284 c19 -29 202 -359 407 -733 798 -1456 986
-1797 1090 -1985 117 -209 151 -280 144 -292 -2 -4 -21 -1 -42 7 -43 15 -950
404 -1002 429 l-35 17 -44 182 c-53 225 -182 772 -381 1617 -83 355 -160 680
-170 722 -23 90 -23 88 -10 88 6 0 25 -24 43 -52z m-688 -170 c-26 -90 -116
-399 -202 -688 -85 -289 -185 -631 -223 -760 -38 -129 -107 -365 -153 -525
-47 -159 -93 -316 -101 -348 -16 -56 -18 -58 -84 -90 -126 -63 -992 -431 -998
-424 -13 13 73 160 1041 1777 665 1109 728 1215 747 1238 27 32 19 -18 -27
-180z m580 -340 c46 -194 123 -519 170 -723 180 -769 247 -1053 270 -1147 35
-134 34 -144 -12 -152 -21 -3 -149 -6 -284 -6 l-246 0 -7 92 c-8 119 -8 2142
1 2242 4 54 9 73 15 62 5 -9 47 -175 93 -368z m-297 -2683 c-3 -358 -7 -478
-16 -487 -10 -10 -32 -8 -105 6 -115 23 -1792 442 -1829 457 -16 6 -28 16 -28
21 0 11 82 49 365 169 234 100 326 140 530 230 138 61 142 62 255 69 63 4 276
7 474 8 l358 2 -4 -475z m1426 238 c292 -125 531 -233 533 -240 9 -26 31 -19
-1411 -410 -191 -52 -351 -91 -355 -88 -3 4 -7 225 -9 492 l-3 486 358 -6 358
-6 529 -228z"/>
</g>
</svg>
