<?xml version="1.0" standalone="no"?>
<!DOCTYPE svg PUBLIC "-//W3C//DTD SVG 20010904//EN"
 "http://www.w3.org/TR/2001/REC-SVG-20010904/DTD/svg10.dtd">
<svg version="1.0" xmlns="http://www.w3.org/2000/svg"
 width="700.000000pt" height="700.000000pt" viewBox="0 0 700.000000 700.000000"
 preserveAspectRatio="xMidYMid meet">
<metadata>
Created by potrace 1.14, written by Peter Selinger 2001-2017
</metadata>
<g transform="translate(0.000000,700.000000) scale(0.100000,-0.100000)"
fill="#000000" stroke="none">
<path d="M3270 6581 c-76 -14 -201 -60 -280 -102 -172 -92 -311 -226 -445
-428 -75 -113 -336 -555 -535 -906 -41 -71 -259 -449 -486 -840 -226 -390
-479 -829 -561 -975 -173 -306 -450 -785 -548 -945 -153 -252 -276 -546 -305
-728 -38 -234 49 -572 198 -767 184 -243 507 -428 802 -460 354 -39 711 104
945 377 128 149 245 328 410 628 122 222 327 580 555 970 106 182 258 445 338
585 79 140 237 415 349 610 113 195 257 445 320 555 281 487 366 598 470 612
82 11 188 -42 247 -124 52 -71 568 -952 647 -1104 36 -69 51 -174 38 -266 -12
-87 -54 -184 -156 -360 -47 -82 -130 -229 -185 -328 -55 -99 -110 -193 -123
-210 -33 -46 -191 -342 -221 -415 -64 -159 -84 -330 -65 -556 14 -164 39 -253
103 -376 156 -298 440 -507 788 -578 90 -19 127 -21 260 -17 129 4 170 9 244
31 180 54 366 162 510 297 104 97 165 179 225 303 80 163 86 196 85 451 0 210
-1 224 -27 309 -57 184 -182 410 -812 1466 -100 168 -235 400 -300 515 -65
116 -200 352 -300 525 -100 173 -190 331 -200 350 -10 19 -46 80 -80 135 -34
55 -172 298 -307 540 -274 494 -327 582 -436 728 -178 240 -420 423 -639 483
-67 18 -447 29 -523 15z"/>
</g>
</svg>
