<?xml version="1.0" standalone="no"?>
<!DOCTYPE svg PUBLIC "-//W3C//DTD SVG 20010904//EN"
 "http://www.w3.org/TR/2001/REC-SVG-20010904/DTD/svg10.dtd">
<svg version="1.0" xmlns="http://www.w3.org/2000/svg"
 width="700.000000pt" height="700.000000pt" viewBox="0 0 700.000000 700.000000"
 preserveAspectRatio="xMidYMid meet">
<metadata>
Created by potrace 1.14, written by Peter Selinger 2001-2017
</metadata>
<g transform="translate(0.000000,700.000000) scale(0.100000,-0.100000)"
fill="#000000" stroke="none">
<path d="M3552 5985 c-71 -63 -160 -204 -595 -930 -236 -396 -765 -1280 -1175
-1965 -410 -685 -758 -1270 -773 -1300 -51 -104 -46 -150 19 -184 43 -22 1304
-348 1937 -500 634 -153 655 -155 930 -82 551 145 1744 476 1900 527 151 49
225 90 225 124 0 48 -258 538 -827 1570 -176 319 -366 666 -423 770 -57 105
-212 388 -345 630 -133 242 -342 626 -466 854 -289 534 -317 568 -407 486z
m-53 -2317 l1 -1258 -347 1 c-192 1 -375 4 -408 8 -57 6 -60 7 -57 31 2 28
101 367 345 1195 91 308 216 733 277 945 62 212 126 428 143 480 l32 95 6
-120 c3 -66 7 -686 8 -1377z m604 1162 c52 -91 188 -336 302 -545 114 -209
342 -623 506 -921 499 -906 770 -1416 757 -1429 -17 -18 -908 354 -1045 437
-89 53 -98 70 -158 315 -138 559 -556 2404 -555 2450 1 13 92 -133 193 -307z
m-885 198 c-19 -86 -160 -592 -263 -943 -58 -198 -173 -589 -255 -870 -201
-689 -231 -773 -290 -815 -86 -61 -1011 -470 -1064 -470 -12 0 -7 16 21 68
239 438 1831 3072 1857 3072 2 0 0 -19 -6 -42z m540 -180 c11 -29 24 -75 31
-103 6 -27 97 -414 202 -860 232 -987 286 -1224 301 -1338 15 -114 12 -117
-114 -126 -87 -7 -465 3 -474 11 -8 8 -9 2277 -1 2371 10 113 25 126 55 45z
m-260 -3142 c-2 -283 -6 -517 -9 -521 -8 -7 -1792 440 -2037 511 -49 15 -54
18 -38 29 26 20 255 124 696 317 l405 177 493 0 493 1 -3 -514z m1243 390
c594 -258 809 -359 816 -382 7 -22 -662 -219 -1412 -414 -240 -63 -418 -101
-429 -90 -17 17 -25 172 -25 515 1 330 6 456 22 471 15 15 139 21 433 23 l311
1 284 -124z"/>
</g>
</svg>
